<?xml version="1.0" encoding="iso-8859-1"?>
<!-- Generator: Adobe Illustrator 18.1.1, SVG Export Plug-In . SVG Version: 6.00 Build 0)  -->
<svg version="1.1" id="Capa_1" xmlns="http://www.w3.org/2000/svg" xmlns:xlink="http://www.w3.org/1999/xlink" x="0px" y="0px"
	 viewBox="0 0 21.382 21.382" style="enable-background:new 0 0 21.382 21.382;" xml:space="preserve">
<g>
	<g>
		<g>
			<path style="fill:#010002;" d="M15.223,7.036c1.463,1.297,2.303,2.862,2.303,4.816c0,3.77-3.066,6.835-6.835,6.835
				c-3.77,0-6.835-3.065-6.835-6.835c0-1.825,0.711-3.542,2.002-4.833L3.952,5.114c-1.8,1.801-2.791,4.194-2.791,6.739
				c0,5.254,4.274,9.529,9.529,9.529c5.254,0,9.53-4.274,9.53-9.529c0-2.725-1.17-5.024-3.209-6.833L15.223,7.036z"/>
			<path style="fill:#010002;" d="M12.06,11.747c0,0.787-0.715,1.424-1.599,1.424c-0.881,0-1.597-0.637-1.597-1.424V1.424
				C8.865,0.637,9.581,0,10.462,0c0.882,0,1.597,0.637,1.597,1.424v10.323H12.06z"/>
		</g>
	</g>
</g>
<g>
</g>
<g>
</g>
<g>
</g>
<g>
</g>
<g>
</g>
<g>
</g>
<g>
</g>
<g>
</g>
<g>
</g>
<g>
</g>
<g>
</g>
<g>
</g>
<g>
</g>
<g>
</g>
<g>
</g>
</svg>
